<?xml version="1.0" standalone="no"?>
<!DOCTYPE svg PUBLIC "-//W3C//DTD SVG 20010904//EN"
 "http://www.w3.org/TR/2001/REC-SVG-20010904/DTD/svg10.dtd">
<svg version="1.0" xmlns="http://www.w3.org/2000/svg"
 width="700.000000pt" height="700.000000pt" viewBox="0 0 700.000000 700.000000"
 preserveAspectRatio="xMidYMid meet">
<metadata>
Created by potrace 1.14, written by Peter Selinger 2001-2017
</metadata>
<g transform="translate(0.000000,700.000000) scale(0.100000,-0.100000)"
fill="#000000" stroke="none">
<path d="M1930 5481 c-234 -235 -379 -554 -441 -974 -10 -73 -19 -154 -19
-182 0 -101 12 -95 -186 -95 -95 0 -196 -5 -224 -11 -100 -21 -190 -108 -230
-221 -10 -29 -118 -496 -240 -1038 -122 -542 -270 -1203 -331 -1468 -60 -266
-109 -496 -109 -510 0 -85 65 -177 148 -209 45 -17 180 -18 3032 -18 l2985 0
55 26 c114 53 174 138 173 244 0 34 -41 279 -96 565 -53 278 -175 925 -272
1439 -160 854 -178 939 -207 993 -56 104 -153 175 -273 197 -41 8 -667 11
-2077 11 l-2018 0 6 58 c26 264 47 381 101 547 71 220 173 397 318 552 60 65
75 87 70 103 -4 11 -11 17 -17 14 -7 -5 -8 -2 -4 5 11 18 -12 68 -32 68 -9 0
-59 -43 -112 -96z m3771 -1412 c58 -14 114 -62 143 -121 21 -43 73 -310 281
-1433 141 -759 261 -1406 267 -1437 9 -49 7 -63 -8 -95 -11 -21 -35 -47 -54
-58 -35 -20 -42 -20 -2998 -23 -2639 -2 -2966 0 -2992 13 -34 18 -44 46 -38
107 2 24 117 540 256 1148 138 608 285 1255 326 1437 101 450 109 463 271 474
148 9 4507 -2 4546 -12z"/>
<path d="M4515 3778 c-16 -6 -42 -22 -57 -36 -26 -24 -28 -31 -28 -107 0 -69
3 -85 20 -100 20 -18 20 -17 20 58 0 71 2 77 29 100 58 48 189 59 263 21 15
-8 28 -11 28 -6 0 16 -55 59 -89 71 -42 14 -145 13 -186 -1z"/>
<path d="M5084 3771 c-60 -28 -74 -53 -74 -137 0 -57 4 -77 20 -95 l19 -24 1
68 c0 82 9 101 60 127 69 35 160 36 247 3 13 -5 14 -3 3 16 -30 57 -189 81
-276 42z"/>
<path d="M3871 3486 c17 -61 3 -131 -33 -161 -29 -24 -33 -25 -192 -25 -179 0
-196 5 -222 64 -13 29 -13 27 -14 -52 0 -163 25 -182 240 -182 230 0 243 13
238 230 -2 92 -7 143 -15 151 -10 10 -10 4 -2 -25z"/>
<path d="M1558 3449 c5 -72 -14 -119 -54 -138 -32 -14 -328 -15 -354 -1 -11 6
-26 23 -34 38 -14 26 -15 22 -16 -60 0 -83 2 -90 29 -120 l29 -32 131 -4 c159
-5 213 2 249 33 27 23 27 24 30 169 2 80 -1 152 -5 161 -6 10 -8 -7 -5 -46z"/>
<path d="M2126 3469 c8 -60 -10 -123 -43 -148 -23 -19 -39 -21 -187 -21 -179
0 -195 5 -222 64 -14 29 -14 25 -11 -65 5 -156 24 -169 242 -168 220 0 235 15
234 219 0 69 -5 134 -10 145 -6 14 -7 6 -3 -26z"/>
<path d="M3292 3432 c-2 -66 -5 -76 -31 -103 l-29 -29 -165 0 c-153 0 -166 2
-191 21 -15 12 -32 31 -36 43 -6 14 -9 -7 -9 -64 -1 -156 24 -172 249 -168
223 4 222 4 218 223 -2 83 -5 117 -6 77z"/>
<path d="M2712 3437 c-2 -64 -13 -93 -46 -119 -18 -15 -45 -18 -184 -18 -93 0
-172 4 -182 10 -11 6 -26 23 -34 38 -14 26 -15 22 -16 -60 0 -83 2 -89 29
-120 l29 -33 154 -3 c121 -3 162 0 190 11 63 26 69 45 65 208 -1 79 -4 118 -5
86z"/>
<path d="M2246 3027 c3 -10 9 -15 12 -12 3 3 0 11 -7 18 -10 9 -11 8 -5 -6z"/>
<path d="M4001 3012 c6 -18 9 -58 7 -89 -4 -48 -10 -61 -37 -85 l-31 -28 -158
0 c-168 1 -193 7 -218 51 -12 21 -13 14 -14 -68 0 -90 0 -92 31 -117 30 -26
32 -26 204 -26 169 0 175 1 202 24 l28 24 0 161 c0 116 -3 163 -13 173 -10 10
-10 6 -1 -20z"/>
<path d="M5009 3007 c14 -35 14 -107 2 -140 -6 -14 -20 -35 -32 -46 -21 -20
-34 -21 -190 -21 -153 0 -168 2 -193 21 -14 11 -26 28 -27 37 -1 9 -5 -3 -10
-28 -11 -53 -3 -126 17 -157 23 -36 75 -45 242 -41 l154 3 30 33 29 34 -3 153
c-2 110 -7 158 -16 167 -11 11 -11 8 -3 -15z"/>
<path d="M1671 2948 c-1 -66 -4 -81 -25 -105 l-24 -28 -164 -3 c-183 -3 -202
2 -230 58 l-18 35 0 -81 c0 -165 12 -174 234 -174 172 0 202 6 226 43 18 27
26 246 12 297 -9 31 -10 27 -11 -42z"/>
<path d="M3421 2948 c-1 -66 -4 -81 -25 -105 l-24 -28 -164 -3 c-183 -3 -202
2 -230 58 l-18 35 0 -88 c0 -93 14 -138 49 -157 12 -6 93 -10 193 -10 163 0
176 1 197 21 12 11 26 32 32 46 11 30 11 261 -1 288 -6 14 -9 -5 -9 -57z"/>
<path d="M5595 2933 c0 -80 -1 -86 -28 -109 -27 -23 -33 -24 -195 -24 -180 1
-189 3 -217 56 -14 28 -15 25 -15 -63 0 -88 1 -94 29 -125 l29 -33 162 -3
c249 -5 250 -4 250 213 0 82 -4 155 -8 162 -4 6 -7 -27 -7 -74z"/>
<path d="M2840 2950 c0 -70 -17 -111 -55 -128 -16 -8 -82 -12 -179 -12 -141 0
-155 2 -180 21 -15 12 -32 31 -36 43 -6 14 -9 -10 -9 -72 -1 -90 0 -95 28
-123 l29 -29 177 0 177 0 29 29 29 29 0 151 c0 83 -2 151 -5 151 -3 0 -5 -27
-5 -60z"/>
<path d="M2259 2936 c-5 -61 -9 -72 -37 -97 l-32 -29 -158 0 c-168 1 -193 7
-218 51 -12 21 -13 14 -14 -64 0 -85 1 -90 29 -118 l29 -29 174 0 c239 0 240
1 236 220 -2 109 -4 122 -9 66z"/>
<path d="M1378 2498 c7 -132 -17 -148 -225 -148 -166 0 -189 7 -215 60 l-18
35 0 -88 c0 -159 11 -166 238 -167 l174 0 29 29 29 29 0 156 c0 85 -3 157 -7
159 -5 3 -6 -27 -5 -65z"/>
<path d="M2548 2494 c4 -73 4 -74 -31 -109 l-35 -35 -162 0 -162 0 -34 34 -34
34 0 -85 c0 -80 2 -86 29 -114 l29 -29 177 0 177 0 29 29 29 29 0 149 c0 81
-4 153 -8 160 -4 6 -6 -22 -4 -63z"/>
<path d="M3128 2498 c7 -132 -17 -148 -225 -148 -166 0 -189 7 -215 60 l-18
35 0 -88 c0 -93 14 -138 49 -157 11 -6 92 -10 190 -10 168 0 170 0 200 26 l31
26 0 158 c0 87 -3 161 -7 163 -5 3 -6 -27 -5 -65z"/>
<path d="M4298 2494 c4 -73 4 -74 -31 -109 l-35 -35 -162 0 -162 0 -34 34 -34
34 0 -85 c0 -80 2 -86 29 -114 l29 -29 177 0 177 0 29 29 29 29 0 149 c0 81
-4 153 -8 160 -4 6 -6 -22 -4 -63z"/>
<path d="M1966 2504 c6 -68 -15 -121 -56 -141 -17 -8 -75 -13 -173 -13 -166 0
-193 7 -221 62 -17 33 -17 33 -13 -66 3 -97 4 -99 35 -127 l32 -29 171 0 c188
0 209 6 228 62 13 37 14 277 2 297 -6 9 -8 -7 -5 -45z"/>
<path d="M3716 2504 c6 -68 -15 -121 -56 -141 -17 -8 -75 -13 -173 -13 -182 0
-204 8 -230 90 -3 8 -6 -24 -6 -72 -1 -96 7 -126 40 -157 21 -20 34 -21 197
-21 100 0 181 4 193 10 39 22 49 61 49 202 0 73 -4 139 -9 147 -6 9 -8 -7 -5
-45z"/>
<path d="M5278 2340 c3 -77 3 -81 -26 -110 l-30 -30 -169 0 -169 0 -26 28
c-14 15 -28 36 -31 47 -3 11 -5 -24 -6 -78 l-1 -99 35 -35 35 -35 175 4 175 3
27 28 28 27 0 155 c0 89 -4 158 -10 164 -7 7 -9 -16 -7 -69z"/>
<path d="M3299 2001 c24 -24 35 -78 28 -139 -4 -36 -12 -53 -36 -74 l-31 -28
-916 0 -916 0 -29 29 c-27 27 -29 35 -29 103 0 50 5 81 16 98 14 22 12 22 -10
-3 -26 -28 -26 -31 -26 -178 l0 -151 28 -28 28 -28 785 -7 c431 -4 862 -6 957
-4 l174 4 29 33 29 32 0 151 0 151 -29 29 c-16 16 -39 29 -50 29 -21 0 -21 0
-2 -19z"/>
<path d="M4760 1981 c5 -11 10 -52 10 -91 0 -66 -2 -74 -29 -101 l-29 -29
-164 0 c-181 0 -198 5 -224 64 -12 29 -13 25 -14 -64 0 -155 20 -170 235 -170
172 0 208 10 230 64 21 49 21 263 1 311 -8 19 -18 35 -21 35 -3 0 -1 -9 5 -19z"/>
<path d="M5851 1962 c6 -18 9 -58 7 -89 -4 -48 -10 -61 -37 -85 l-31 -28 -156
0 c-209 0 -221 6 -234 125 -6 48 -7 35 -8 -68 -3 -219 9 -230 255 -225 l165 3
29 33 29 32 0 148 c0 116 -3 152 -15 168 -13 17 -14 16 -4 -14z"/>
<path d="M5318 1915 c5 -78 -10 -120 -49 -140 -34 -18 -314 -21 -352 -4 -13 6
-31 23 -40 37 -16 26 -16 25 -17 -64 0 -78 3 -93 21 -113 33 -36 62 -41 214
-41 152 0 181 5 214 41 19 21 21 34 21 173 0 83 -4 157 -8 163 -4 7 -6 -17 -4
-52z"/>
<path d="M1247 1924 c7 -63 -10 -117 -44 -144 -23 -18 -40 -20 -187 -20 -179
0 -196 5 -222 64 -13 30 -13 28 -14 -44 0 -41 5 -92 10 -112 18 -64 32 -68
228 -68 100 0 181 4 193 10 39 21 49 62 48 197 0 70 -4 137 -9 148 -5 13 -6 1
-3 -31z"/>
<path d="M3915 1893 c0 -72 -1 -76 -33 -104 l-32 -29 -165 0 c-159 0 -165 1
-192 24 -22 19 -29 35 -34 82 -5 47 -6 34 -8 -59 -2 -203 14 -217 241 -217
157 0 201 12 225 60 14 27 18 286 5 306 -4 7 -7 -22 -7 -63z"/>
</g>
</svg>
